<svg xmlns="http://www.w3.org/2000/svg" width="1400" height="420" viewBox="0 0 1400 420">
  <style>
    .box { fill: #f8fafc; stroke: #1f2937; stroke-width: 2; rx: 12; }
    .cgp { fill: #dbeafe; stroke: #1d4ed8; stroke-width: 2; rx: 12; }
    .text { font-family: Arial, sans-serif; font-size: 24px; fill: #111827; text-anchor: middle; }
    .small { font-family: Arial, sans-serif; font-size: 18px; fill: #374151; text-anchor: middle; }
    .arrow { stroke: #111827; stroke-width: 3; marker-end: url(#arrowhead); }
  </style>
  <defs><marker id="arrowhead" markerWidth="10" markerHeight="7" refX="9" refY="3.5" orient="auto"><polygon points="0 0, 10 3.5, 0 7" fill="#111827"/></marker></defs>
  <rect class="box" x="40" y="120" width="190" height="120"/>
  <text class="text" x="135" y="165">Task spec</text><text class="small" x="135" y="200">allowed files</text>
  <line class="arrow" x1="230" y1="180" x2="310" y2="180"/>
  <rect class="cgp" x="310" y="90" width="230" height="180"/>
  <text class="text" x="425" y="140">Prompt condition</text><text class="small" x="425" y="178">baseline or CGP</text><text class="small" x="425" y="210">manifest + lock</text><text class="small" x="425" y="242">evidence trio</text>
  <line class="arrow" x1="540" y1="180" x2="620" y2="180"/>
  <rect class="box" x="620" y="120" width="190" height="120"/>
  <text class="text" x="715" y="165">Agent run</text><text class="small" x="715" y="200">isolated worktree</text>
  <line class="arrow" x1="810" y1="180" x2="890" y2="180"/>
  <rect class="box" x="890" y="120" width="190" height="120"/>
  <text class="text" x="985" y="165">Capture</text><text class="small" x="985" y="200">diff + transcript</text>
  <line class="arrow" x1="1080" y1="180" x2="1160" y2="180"/>
  <rect class="box" x="1160" y="90" width="200" height="180"/>
  <text class="text" x="1260" y="140">Metrics</text><text class="small" x="1260" y="178">validity</text><text class="small" x="1260" y="210">drift</text><text class="small" x="1260" y="242">verification</text>
</svg>
